<svg data-name="Layer 1" xmlns="http://www.w3.org/2000/svg" viewBox="0 0 24 24.57"><defs><style>.cls-1{fill:#263238;}</style></defs><title>remove-icon</title><path class="cls-1" d="M12,9.89,2.71.18A1.59,1.59,0,0,0,.46.18a1.59,1.59,0,0,0,0,2.23L10.88,12.82a1.57,1.57,0,0,0,2.23,0L23.54,2.42a1.59,1.59,0,0,0,0-2.23,1.59,1.59,0,0,0-2.23,0L12,9.89Z" transform="translate(0 0.28)"/><path class="cls-1" d="M12,14.11l9.29,9.71a1.58,1.58,0,0,0,2.25-2.23L13.12,11.18a1.57,1.57,0,0,0-2.23,0L.46,21.58a1.58,1.58,0,1,0,2.23,2.23L12,14.11Z" transform="translate(0 0.28)"/></svg>